# xmcd
#
# Track frame offsets: 
#        150
#        27727
#        54102
#        86820
#        101915
#        125996
#        150092
#        165880
#        194059
#        226961
#        266605
#
# Disc length: 4045 seconds
#
# Revision: 0
# Processed by: cddbd v1.5.1PL2 Copyright (c) Steve Scherf et al.
# Submitted via: ExactAudioCopy v0.95b3
#
DISCID=8f0fcb0b
DTITLE=Susanna Tamaro - Antworte mir
DYEAR=1900
DGENRE=Lesung
TTITLE0=Antworte mir CD6
TTITLE1=Antworte mir CD6
TTITLE2=Antworte mir CD6
TTITLE3=Antworte mir CD6
TTITLE4=Antworte mir CD6
TTITLE5=Antworte mir CD6
TTITLE6=Antworte mir CD6
TTITLE7=Antworte mir CD6
TTITLE8=Antworte mir CD6
TTITLE9=Antworte mir CD6
TTITLE10=Antworte mir CD6
EXTD=
EXTT0=
EXTT1=
EXTT2=
EXTT3=
EXTT4=
EXTT5=
EXTT6=
EXTT7=
EXTT8=
EXTT9=
EXTT10=
PLAYORDER=
